PathFileType	4	(X/Y/Z)	 0.11m3min.trc
DataRate	CameraRate	NumFrames	NumMarkers	Units	OrigDataRate	OrigDataStartFrame	OrigNumFrames
200	200	9	43	m	200	376	1000
Frame#	Time	C7			LSH			RSH			MAN			RASI			LASI			HIPR			HIPL			RPSI			LPSI			COX			RTHI1			RTHI2			RTHI3			RTHI4			RLKN			RMKN			RSHA1			RSHA2			RSHA3			RSHA4			RLMAL			RMMAL			RHEEL			RMET5			RMET1			RTOE			LTHI1			LTHI2			LTHI3			LTHI4			LLKN			LMKN			LSHA1			LSHA2			LSHA3			LSHA4			LLMAL			LMMAL			LHEEL			LMET5			LMET1			LTOE			
		X1	Y1	Z1	X2	Y2	Z2	X3	Y3	Z3	X4	Y4	Z4	X5	Y5	Z5	X6	Y6	Z6	X7	Y7	Z7	X8	Y8	Z8	X9	Y9	Z9	X10	Y10	Z10	X11	Y11	Z11	X12	Y12	Z12	X13	Y13	Z13	X14	Y14	Z14	X15	Y15	Z15	X16	Y16	Z16	X17	Y17	Z17	X18	Y18	Z18	X19	Y19	Z19	X20	Y20	Z20	X21	Y21	Z21	X22	Y22	Z22	X23	Y23	Z23	X24	Y24	Z24	X25	Y25	Z25	X26	Y26	Z26	X27	Y27	Z27	X28	Y28	Z28	X29	Y29	Z29	X30	Y30	Z30	X31	Y31	Z31	X32	Y32	Z32	X33	Y33	Z33	X34	Y34	Z34	X35	Y35	Z35	X36	Y36	Z36	X37	Y37	Z37	X38	Y38	Z38	X39	Y39	Z39	X40	Y40	Z40	X41	Y41	Z41	X42	Y42	Z42	X43	Y43	Z43	
376	1.8800	-0.262434	1.560807	-0.502643	-0.280299	1.567339	-0.673687	-0.162067	1.565969	-0.347630	-0.133528	1.514931	-0.537853	-0.087342	1.078514	-0.428447	-0.136851	1.080220	-0.646226	-0.133275	1.135441	-0.389317	-0.196943	1.127796	-0.661670	-0.242962	1.128947	-0.449997	-0.265199	1.126632	-0.552574	-0.254811	1.131958	-0.497095	-0.179340	0.858642	-0.335819	-0.170154	0.799234	-0.336850	-0.107941	0.805347	-0.353837	-0.109138	0.867094	-0.354959	-0.174227	0.571246	-0.363547	-0.179060	0.554359	-0.461522	-0.263147	0.385432	-0.340264	-0.273615	0.344092	-0.347548	-0.213212	0.335980	-0.350249	-0.206784	0.375701	-0.347275	-0.263824	0.200999	-0.361525	-0.242194	0.212866	-0.437231	-0.309535	0.203881	-0.408321	-0.191827	0.083026	-0.350016	-0.156660	0.080056	-0.423873	-0.138258	0.062665	-0.415543	-0.256587	0.866871	-0.697836	-0.243666	0.807200	-0.706486	-0.179499	0.816040	-0.713178	-0.185156	0.875340	-0.706921	-0.237673	0.571050	-0.687218	-0.205456	0.557608	-0.593949	-0.321764	0.358472	-0.681711	-0.324878	0.318665	-0.674852	-0.265713	0.315629	-0.693166	-0.270032	0.359377	-0.697680	-0.301227	0.204502	-0.685935	-0.277355	0.209063	-0.613224	-0.346792	0.203608	-0.632517	-0.238594	0.084949	-0.700171	-0.193573	0.079629	-0.635105	-0.175272	0.060584	-0.647426	
377	1.8850	-0.262591	1.562855	-0.502386	-0.280520	1.569364	-0.673552	-0.162247	1.567991	-0.347191	-0.133520	1.517161	-0.537630	-0.087433	1.080513	-0.428299	-0.137068	1.082243	-0.646041	-0.133289	1.137368	-0.389037	-0.197227	1.129406	-0.661457	-0.243007	1.131315	-0.449762	-0.265311	1.128976	-0.552330	-0.254820	1.134274	-0.496823	-0.179718	0.860714	-0.335625	-0.170484	0.801320	-0.336628	-0.108281	0.807465	-0.353624	-0.109518	0.869213	-0.354768	-0.174581	0.573345	-0.363626	-0.179109	0.556574	-0.461549	-0.263858	0.387551	-0.340911	-0.274262	0.346229	-0.348172	-0.213843	0.338089	-0.350596	-0.207429	0.377788	-0.347635	-0.264391	0.202958	-0.362214	-0.242257	0.214937	-0.437749	-0.309842	0.205016	-0.409565	-0.190822	0.086275	-0.349442	-0.154581	0.083630	-0.422811	-0.135975	0.066426	-0.414284	-0.257005	0.868987	-0.697580	-0.244052	0.809319	-0.706189	-0.179908	0.818201	-0.712991	-0.185593	0.877500	-0.706792	-0.237506	0.573319	-0.686862	-0.205555	0.560019	-0.593542	-0.321627	0.360668	-0.681451	-0.324714	0.320891	-0.674564	-0.265502	0.317885	-0.692736	-0.269865	0.361621	-0.697295	-0.301027	0.206706	-0.685516	-0.277029	0.211139	-0.612845	-0.346502	0.205056	-0.631812	-0.237287	0.088245	-0.700976	-0.191782	0.082785	-0.636320	-0.173310	0.064039	-0.648910	
378	1.8900	-0.262735	1.564675	-0.502131	-0.280732	1.571122	-0.673440	-0.162371	1.569679	-0.346757	-0.133508	1.519144	-0.537403	-0.087595	1.082307	-0.428131	-0.137333	1.084064	-0.645857	-0.133398	1.139059	-0.388740	-0.197617	1.130749	-0.661255	-0.243138	1.133379	-0.449513	-0.265493	1.131019	-0.552073	-0.254918	1.136289	-0.496549	-0.180011	0.862530	-0.335414	-0.170701	0.803146	-0.336393	-0.108529	0.809354	-0.353437	-0.109828	0.871106	-0.354607	-0.174819	0.575194	-0.363695	-0.179068	0.558542	-0.461574	-0.264550	0.389451	-0.341577	-0.274917	0.348175	-0.348784	-0.214482	0.339979	-0.350928	-0.208083	0.379635	-0.348003	-0.264997	0.204712	-0.362839	-0.242443	0.216811	-0.438241	-0.310244	0.205960	-0.410708	-0.189952	0.089283	-0.348944	-0.152745	0.087012	-0.421855	-0.133932	0.070020	-0.413136	-0.257333	0.870893	-0.697308	-0.244327	0.811240	-0.705884	-0.180208	0.820176	-0.712755	-0.185942	0.879467	-0.706610	-0.237318	0.575365	-0.686574	-0.205587	0.562183	-0.593208	-0.321547	0.362656	-0.681156	-0.324616	0.322909	-0.674252	-0.265386	0.319917	-0.692347	-0.269766	0.363644	-0.696939	-0.300907	0.208691	-0.685124	-0.276771	0.213005	-0.612484	-0.346301	0.206268	-0.631121	-0.236091	0.091313	-0.701742	-0.190129	0.085745	-0.637500	-0.171521	0.067288	-0.650375	
379	1.8950	-0.262859	1.566268	-0.501880	-0.280933	1.572618	-0.673346	-0.162437	1.571074	-0.346312	-0.133485	1.520875	-0.537173	-0.087827	1.083901	-0.427945	-0.137637	1.085691	-0.645669	-0.133594	1.140526	-0.388437	-0.198093	1.131879	-0.661052	-0.243350	1.135141	-0.449254	-0.265738	1.132767	-0.551806	-0.255105	1.138014	-0.496269	-0.180229	0.864099	-0.335191	-0.170822	0.804725	-0.336154	-0.108696	0.811013	-0.353279	-0.110074	0.872766	-0.354470	-0.174956	0.576800	-0.363747	-0.178966	0.560266	-0.461599	-0.265204	0.391126	-0.342250	-0.275550	0.349924	-0.349367	-0.215114	0.341649	-0.351238	-0.208715	0.381263	-0.348342	-0.265626	0.206269	-0.363395	-0.242718	0.218486	-0.438709	-0.310718	0.206730	-0.411743	-0.189227	0.092039	-0.348540	-0.151181	0.090160	-0.421033	-0.132160	0.073410	-0.412131	-0.257561	0.872594	-0.697020	-0.244487	0.812955	-0.705561	-0.180389	0.821954	-0.712461	-0.186189	0.881243	-0.706372	-0.237127	0.577176	-0.686345	-0.205568	0.564086	-0.592939	-0.321516	0.364428	-0.680843	-0.324575	0.324700	-0.673937	-0.265346	0.321710	-0.692005	-0.269731	0.365429	-0.696614	-0.300851	0.210448	-0.684778	-0.276574	0.214666	-0.612151	-0.346184	0.207246	-0.630485	-0.234989	0.094134	-0.702458	-0.188629	0.088488	-0.638600	-0.169895	0.070324	-0.651739	
380	1.9000	-0.262962	1.567639	-0.501638	-0.281120	1.573858	-0.673264	-0.162424	1.572173	-0.345868	-0.133450	1.522360	-0.536945	-0.088125	1.085295	-0.427741	-0.137973	1.087122	-0.645474	-0.133863	1.141782	-0.388137	-0.198632	1.132831	-0.660843	-0.243629	1.136601	-0.448994	-0.266046	1.134229	-0.551525	-0.255375	1.139453	-0.495981	-0.180381	0.865427	-0.334971	-0.170871	0.806060	-0.335924	-0.108798	0.812444	-0.353144	-0.110266	0.874192	-0.354351	-0.175013	0.578164	-0.363773	-0.178810	0.561750	-0.461621	-0.265819	0.392604	-0.342879	-0.276171	0.351480	-0.349907	-0.215741	0.343088	-0.351529	-0.209306	0.382673	-0.348628	-0.266280	0.207618	-0.363915	-0.243063	0.219955	-0.439159	-0.311248	0.207336	-0.412674	-0.188641	0.094520	-0.348240	-0.149900	0.093037	-0.420373	-0.130677	0.076549	-0.411303	-0.257685	0.874085	-0.696722	-0.244532	0.814464	-0.705233	-0.180446	0.823534	-0.712119	-0.186321	0.882814	-0.706078	-0.236937	0.578751	-0.686172	-0.205513	0.565719	-0.592719	-0.321529	0.365983	-0.680531	-0.324584	0.326257	-0.673639	-0.265370	0.323263	-0.691716	-0.269728	0.366983	-0.696331	-0.300854	0.211962	-0.684483	-0.276426	0.216108	-0.611848	-0.346143	0.208000	-0.629916	-0.233975	0.096688	-0.703116	-0.187287	0.091006	-0.639586	-0.168422	0.073132	-0.652952	
381	1.9050	-0.263039	1.568788	-0.501407	-0.281284	1.574849	-0.673195	-0.162381	1.573020	-0.345419	-0.133403	1.523599	-0.536721	-0.088482	1.086495	-0.427521	-0.138339	1.088359	-0.645272	-0.134190	1.142833	-0.387843	-0.199214	1.133631	-0.660623	-0.243966	1.137779	-0.448725	-0.266408	1.135412	-0.551227	-0.255713	1.140614	-0.495692	-0.180483	0.866516	-0.334762	-0.170867	0.807164	-0.335711	-0.108851	0.813647	-0.353032	-0.110411	0.875389	-0.354246	-0.174994	0.579285	-0.363772	-0.178606	0.562990	-0.461636	-0.266386	0.393864	-0.343459	-0.276770	0.352831	-0.350403	-0.216350	0.344300	-0.351801	-0.209856	0.383860	-0.348875	-0.266967	0.208755	-0.364433	-0.243478	0.221210	-0.439596	-0.311828	0.207790	-0.413505	-0.188196	0.096719	-0.348032	-0.148903	0.095609	-0.419881	-0.129477	0.079409	-0.410679	-0.257704	0.875357	-0.696426	-0.244470	0.815756	-0.704907	-0.180385	0.824901	-0.711730	-0.186340	0.884175	-0.705730	-0.236748	0.580086	-0.686053	-0.205445	0.567073	-0.592537	-0.321572	0.367315	-0.680245	-0.324638	0.327579	-0.673377	-0.265445	0.324585	-0.691482	-0.269751	0.368305	-0.696092	-0.300913	0.213231	-0.684240	-0.276367	0.217332	-0.611583	-0.346185	0.208528	-0.629431	-0.233047	0.098963	-0.703719	-0.186100	0.093291	-0.640436	-0.167092	0.075710	-0.653987	
382	1.9100	-0.263085	1.569716	-0.501193	-0.281424	1.575592	-0.673134	-0.162280	1.573588	-0.344981	-0.133349	1.524604	-0.536512	-0.088894	1.087492	-0.427284	-0.138727	1.089397	-0.645060	-0.134569	1.143686	-0.387560	-0.199815	1.134292	-0.660371	-0.244327	1.138667	-0.448470	-0.266816	1.136314	-0.550922	-0.256119	1.141497	-0.495397	-0.180544	0.867372	-0.334570	-0.170832	0.808034	-0.335522	-0.108862	0.814621	-0.352942	-0.110522	0.876358	-0.354153	-0.174902	0.580163	-0.363745	-0.178345	0.563988	-0.461640	-0.266899	0.394901	-0.343990	-0.277338	0.353958	-0.350874	-0.216937	0.345275	-0.352058	-0.210362	0.384808	-0.349105	-0.267675	0.209688	-0.364939	-0.243947	0.222265	-0.440043	-0.312458	0.208113	-0.414238	-0.187887	0.098624	-0.347921	-0.148181	0.097849	-0.419560	-0.128559	0.081943	-0.410257	-0.257627	0.876404	-0.696140	-0.244306	0.816826	-0.704587	-0.180217	0.826044	-0.711301	-0.186255	0.885306	-0.705329	-0.236551	0.581177	-0.685983	-0.205378	0.568147	-0.592381	-0.321639	0.368428	-0.680001	-0.324729	0.328671	-0.673161	-0.265562	0.325661	-0.691297	-0.269789	0.369394	-0.695901	-0.301023	0.214254	-0.684049	-0.276402	0.218325	-0.611354	-0.346311	0.208829	-0.629036	-0.232200	0.100953	-0.704249	-0.185064	0.095331	-0.641145	-0.165888	0.078043	-0.654833	
383	1.9150	-0.263100	1.570425	-0.500994	-0.281533	1.576092	-0.673088	-0.162146	1.573939	-0.344544	-0.133282	1.525366	-0.536324	-0.089356	1.088285	-0.427025	-0.139136	1.090223	-0.644837	-0.134995	1.144341	-0.387288	-0.200417	1.134821	-0.660080	-0.244698	1.139265	-0.448239	-0.267263	1.136940	-0.550609	-0.256574	1.142105	-0.495091	-0.180579	0.867989	-0.334402	-0.170773	0.808673	-0.335356	-0.108843	0.815366	-0.352872	-0.110606	0.877090	-0.354072	-0.174745	0.580791	-0.363694	-0.178022	0.564735	-0.461625	-0.267372	0.395726	-0.344478	-0.277859	0.354864	-0.351321	-0.217499	0.346008	-0.352302	-0.210817	0.385512	-0.349323	-0.268412	0.210415	-0.365455	-0.244464	0.223100	-0.440483	-0.313131	0.208312	-0.414876	-0.187713	0.100233	-0.347902	-0.147711	0.099747	-0.419405	-0.127906	0.084124	-0.410030	-0.257466	0.877214	-0.695867	-0.244055	0.817659	-0.704276	-0.179958	0.826943	-0.710834	-0.186080	0.886195	-0.704881	-0.236347	0.582005	-0.685941	-0.205312	0.568948	-0.592243	-0.321728	0.369312	-0.679804	-0.324853	0.329531	-0.672992	-0.265707	0.326489	-0.691154	-0.269836	0.370233	-0.695759	-0.301185	0.215027	-0.683902	-0.276534	0.219090	-0.611154	-0.346536	0.208926	-0.628767	-0.231428	0.102658	-0.704693	-0.184170	0.097120	-0.641716	-0.164806	0.080111	-0.655489	
384	1.9200	-0.263081	1.570915	-0.500810	-0.281611	1.576353	-0.673053	-0.161976	1.574054	-0.344127	-0.133205	1.525896	-0.536160	-0.089857	1.088869	-0.426741	-0.139564	1.090830	-0.644604	-0.135462	1.144798	-0.387025	-0.201001	1.135208	-0.659757	-0.245073	1.139580	-0.448030	-0.267743	1.137288	-0.550289	-0.257061	1.142440	-0.494784	-0.180599	0.868368	-0.334264	-0.170700	0.809077	-0.335211	-0.108803	0.815879	-0.352814	-0.110673	0.877592	-0.354003	-0.174522	0.581169	-0.363625	-0.177621	0.565230	-0.461593	-0.267783	0.396342	-0.344910	-0.278323	0.355524	-0.351753	-0.218016	0.346496	-0.352536	-0.211207	0.385962	-0.349537	-0.269167	0.210937	-0.365994	-0.245023	0.223720	-0.440935	-0.313839	0.208404	-0.415442	-0.187672	0.101531	-0.347962	-0.147478	0.101290	-0.419399	-0.127504	0.085926	-0.409983	-0.257239	0.877776	-0.695605	-0.243739	0.818242	-0.703986	-0.179625	0.827599	-0.710354	-0.185832	0.886831	-0.704396	-0.236127	0.582572	-0.685927	-0.205248	0.569475	-0.592122	-0.321827	0.369957	-0.679662	-0.325009	0.330163	-0.672871	-0.265877	0.327071	-0.691051	-0.269878	0.370832	-0.695674	-0.301397	0.215562	-0.683791	-0.276771	0.219614	-0.610978	-0.346855	0.208825	-0.628607	-0.230731	0.104076	-0.705055	-0.183408	0.098658	-0.642157	-0.163853	0.081896	-0.655977	
